# xmcd
#
# Track frame offsets: 
#        150
#        21300
#        40425
#        59900
#        79825
#        101525
#        123150
#        143600
#        163850
#        182930
#
# Disc length: 2697 seconds
#
# Revision: 3
# Processed by: cddbd v1.5.1PL0 Copyright (c) Steve Scherf et al.
# Submitted via: ExactAudioCopy v0.95a4
#
DISCID=8d0a870a
DTITLE=Jie Chen Shiao - Finding a word to replace
DYEAR=1900
DGENRE=
TTITLE0=Finding a word to replace Chages made
TTITLE1=Nine hundred and ninety-nine roses
TTITLE2=Lovers among lovers
TTITLE3=You are the only one in my lonely life
TTITLE4=A spaceman came travelling
TTITLE5=Do not blame me for the love I have for you
TTITLE6=How would I like you not to cry
TTITLE7=Nine hundred and ninety-nine roses
TTITLE8=It is difficult to smile to read the love word
TTITLE9=Come closer to me, love me more changes made
EXTD=
EXTT0=
EXTT1=
EXTT2=
EXTT3=
EXTT4=
EXTT5=
EXTT6=
EXTT7=
EXTT8=
EXTT9=
PLAYORDER=
